<svg xmlns="http://www.w3.org/2000/svg" viewBox="0 0 106.39 106.39"><defs><style>.cls-1{fill:#fffefe;}</style></defs><g id="Layer_2" data-name="Layer 2"><g id="Layer_1-2" data-name="Layer 1"><path class="cls-1" d="M53.19,0A53.19,53.19,0,0,0,5.72,77.18l5.73-3.29a1.86,1.86,0,0,1,2.5.63L24.39,91.14a1.86,1.86,0,0,1-.56,2.55L21,95.53A53.19,53.19,0,1,0,53.19,0ZM75.32,68.8,48.76,89.49a1.87,1.87,0,0,1-1.14.39H35.14a1.86,1.86,0,0,1-1.31-.55l-2.59-2.58A1.84,1.84,0,0,0,29,86.49l-1.56,1a1.87,1.87,0,0,1-2.56-.61L18,75.84a1.87,1.87,0,0,1,.72-2.64l14.47-7.52a1.82,1.82,0,0,1,.86-.21H49.8A1.86,1.86,0,0,1,50.72,69l-3,1.7a1.86,1.86,0,0,0,.92,3.48h2.91a1.8,1.8,0,0,0,1-.3l12.53-8.06a1.8,1.8,0,0,1,1-.3h8.1A1.86,1.86,0,0,1,75.32,68.8ZM53.2,56.22c-15.75,0-28.52-15.64-28.52-15.64S37.45,24.94,53.2,24.94,81.72,40.58,81.72,40.58,69,56.22,53.2,56.22Z"/><circle class="cls-1" cx="53.2" cy="40.58" r="9.76" transform="translate(-4.64 74.2) rotate(-67.5)"/></g></g></svg>