<svg xmlns="http://www.w3.org/2000/svg" viewBox="0 0 106.39 106.39"><defs><style>.cls-1{fill:#fffefe;}</style></defs><g id="Layer_2" data-name="Layer 2"><g id="Layer_1-2" data-name="Layer 1"><path class="cls-1" d="M53.19,0A53.18,53.18,0,0,0,6.06,77.84l2.88-1.65a1.86,1.86,0,0,1,2.5.62L21.88,93.43a1.85,1.85,0,0,1-.43,2.45A53.2,53.2,0,1,0,53.19,0ZM30,40.12,41.09,25.81A2,2,0,0,1,42.67,25h5.09a2,2,0,0,1,1.58,3.24L40.11,40.12a2,2,0,0,0,0,2.44l9.31,12.22A2,2,0,0,1,47.82,58H42.68a2,2,0,0,1-1.59-.8L30,42.55A2,2,0,0,1,30,40.12Zm42.8,31L46.25,91.78a1.87,1.87,0,0,1-1.14.39H32.63a1.85,1.85,0,0,1-1.31-.54l-2.59-2.58a1.85,1.85,0,0,0-2.28-.27l-1.56,1a1.86,1.86,0,0,1-2.56-.6l-6.85-11a1.86,1.86,0,0,1,.72-2.63L30.67,68a2,2,0,0,1,.86-.21H47.29a1.86,1.86,0,0,1,.92,3.48L45.2,73a1.86,1.86,0,0,0,.92,3.47H49a1.88,1.88,0,0,0,1-.29l12.53-8.07a1.89,1.89,0,0,1,1-.3h8.1A1.86,1.86,0,0,1,72.81,71.09ZM79,42.56,67.8,57.21a2,2,0,0,1-1.59.79H61.15a2,2,0,0,1-1.6-3.22l9.32-12.22a2,2,0,0,0,0-2.44L59.62,28.27A2,2,0,0,1,61.2,25h5a2,2,0,0,1,1.58.78L79,40.12A2,2,0,0,1,79,42.56Z"/></g></g></svg>