<svg xmlns="http://www.w3.org/2000/svg" viewBox="0 0 106.39 106.39"><defs><style>.cls-1{fill:#fffefe;}</style></defs><g id="Layer_2" data-name="Layer 2"><g id="Layer_1-2" data-name="Layer 1"><path class="cls-1" d="M63.43,99.51a2.24,2.24,0,0,1,.75-3l20-12.57a2.24,2.24,0,0,1,3.07.67l3.84,5.91A53.16,53.16,0,0,0,43.84.84a4.17,4.17,0,0,1,1.94,5.53L28.72,42.22A4.18,4.18,0,0,0,29.54,47l7.38,7.37a4.2,4.2,0,0,0,5.21.55A19,19,0,0,1,52.25,52V63.55a7.56,7.56,0,1,0,0,15.11V90.23A19.12,19.12,0,0,1,33.13,71.1c0-.24,0-.48,0-.73a4.1,4.1,0,0,0-1.21-3L14.19,49.6a4.18,4.18,0,0,1-.81-4.74L32.79,4.06A53.21,53.21,0,0,0,66.42,104.73Zm-.83-8.75-9.06-17.4a2.21,2.21,0,0,1-.25-1v-19a2.24,2.24,0,0,1,4.18-1.11l2.05,3.63a2.24,2.24,0,0,0,4.19-1.11v-3.5a2.17,2.17,0,0,0-.36-1.21L53.64,35a2.25,2.25,0,0,1-.35-1.21V24a2.24,2.24,0,0,1,4-1.38l24.9,32A2.21,2.21,0,0,1,82.66,56V71A2.24,2.24,0,0,1,82,72.58l-3.11,3.1a2.25,2.25,0,0,0-.32,2.76l1.16,1.88A2.24,2.24,0,0,1,79,83.39L65.76,91.63A2.23,2.23,0,0,1,62.6,90.76Z"/></g></g></svg>