<svg xmlns="http://www.w3.org/2000/svg" viewBox="0 0 106.39 106.39"><defs><style>.cls-1{fill:#fffefe;}</style></defs><g id="Layer_2" data-name="Layer 2"><g id="Layer_1-2" data-name="Layer 1"><path class="cls-1" d="M53.19,0a53.2,53.2,0,1,0,53.2,53.19A53.2,53.2,0,0,0,53.19,0Zm-12,80.34-3.44,6a1.86,1.86,0,0,1-2.6.66l-17-10.58a1.86,1.86,0,0,1-.57-2.59L21.38,68a1.85,1.85,0,0,1,2.55-.56L40.56,77.84A1.86,1.86,0,0,1,41.18,80.34ZM49.6,25.72a1.88,1.88,0,0,1-.29,1L41.24,39.25a1.89,1.89,0,0,0-.3,1v2.91a1.86,1.86,0,0,0,3.48.92l1.71-3A1.85,1.85,0,0,1,49.6,42V57.75a1.82,1.82,0,0,1-.21.86L41.87,73.07a1.85,1.85,0,0,1-2.63.73L28.23,67a1.86,1.86,0,0,1-.6-2.56l1-1.56a1.86,1.86,0,0,0-.27-2.29L25.74,58a1.85,1.85,0,0,1-.54-1.31V44.17A1.79,1.79,0,0,1,25.59,43L46.28,16.47a1.86,1.86,0,0,1,3.32,1.15ZM64.53,73.07,57,58.61a1.82,1.82,0,0,1-.21-.86V42a1.86,1.86,0,0,1,3.48-.92l1.7,3a1.86,1.86,0,0,0,3.48-.92V40.25a1.8,1.8,0,0,0-.3-1L57.1,26.72a1.8,1.8,0,0,1-.3-1v-8.1a1.86,1.86,0,0,1,3.33-1.15L80.82,43a1.85,1.85,0,0,1,.39,1.14V56.65A1.86,1.86,0,0,1,80.66,58l-2.58,2.58a1.87,1.87,0,0,0-.26,2.29l1,1.56A1.87,1.87,0,0,1,78.17,67l-11,6.85A1.87,1.87,0,0,1,64.53,73.07Zm23.73,3.35L71.26,87a1.86,1.86,0,0,1-2.6-.66l-3.44-6a1.86,1.86,0,0,1,.63-2.5L82.47,67.4A1.84,1.84,0,0,1,85,68l3.82,5.87A1.87,1.87,0,0,1,88.26,76.42Z"/></g></g></svg>