<svg xmlns="http://www.w3.org/2000/svg" viewBox="0 0 100.62 123.92"><defs><style>.cls-1{fill:#fff;}</style></defs><g id="Layer_2" data-name="Layer 2"><g id="Layer_1-2" data-name="Layer 1"><path class="cls-1" d="M14.2,99.32l14.47-7.53a1.82,1.82,0,0,1,.86-.21H45.29a1.86,1.86,0,0,1,.92,3.48l-3,1.7a1.86,1.86,0,0,0,.92,3.48H47a1.88,1.88,0,0,0,1-.29l12.53-8.07a1.8,1.8,0,0,1,1-.3h8.1a1.86,1.86,0,0,1,1.15,3.33L44.25,115.6a1.87,1.87,0,0,1-1.14.39H30.63a1.89,1.89,0,0,1-1.31-.54l-2.59-2.58a1.85,1.85,0,0,0-2.28-.27l-1.56,1a1.87,1.87,0,0,1-2.56-.6l-6.85-11A1.86,1.86,0,0,1,14.2,99.32Z"/><path class="cls-1" d="M9.44,100.63l10.44,16.62a1.84,1.84,0,0,1-.56,2.55l-5.87,3.82a1.85,1.85,0,0,1-2.59-.58L.28,106a1.85,1.85,0,0,1,.66-2.59l6-3.44A1.85,1.85,0,0,1,9.44,100.63Z"/><path class="cls-1" d="M86.42,24.6,72,32.13a1.78,1.78,0,0,1-.85.21H55.33a1.86,1.86,0,0,1-.92-3.48l3-1.71a1.85,1.85,0,0,0-.92-3.47H53.59a1.88,1.88,0,0,0-1,.29L40.07,32a1.89,1.89,0,0,1-1,.3H31A1.86,1.86,0,0,1,29.82,29L56.37,8.32a1.87,1.87,0,0,1,1.14-.39H70a1.83,1.83,0,0,1,1.31.54l2.59,2.58a1.86,1.86,0,0,0,2.29.27l1.56-1a1.85,1.85,0,0,1,2.55.6l6.85,11A1.86,1.86,0,0,1,86.42,24.6Z"/><path class="cls-1" d="M91.19,23.29,80.74,6.67a1.86,1.86,0,0,1,.56-2.55L87.17.3a1.85,1.85,0,0,1,2.59.58l10.58,17a1.85,1.85,0,0,1-.65,2.59l-6,3.44A1.85,1.85,0,0,1,91.19,23.29Z"/><path class="cls-1" d="M48,82.1l-3-9.25a1.39,1.39,0,0,0-.53-.73l-2.77-2a1.42,1.42,0,0,0-.85-.28H31.12a1.47,1.47,0,0,1-1.39-1l-.56-1.74a1.44,1.44,0,0,1,.53-1.63l7.87-5.72A1.49,1.49,0,0,0,38.1,59l1-3.25a1.39,1.39,0,0,0,0-.9l-3-9.26A1.44,1.44,0,0,1,36.68,44l1.48-1.08a1.46,1.46,0,0,1,1.71,0l7.87,5.72a1.46,1.46,0,0,0,.86.27H52a1.46,1.46,0,0,0,.86-.27l7.87-5.72a1.46,1.46,0,0,1,1.71,0L64,44a1.45,1.45,0,0,1,.53,1.62l-3,9.26a1.39,1.39,0,0,0,0,.9L62.53,59a1.47,1.47,0,0,0,.52.73l7.88,5.72a1.47,1.47,0,0,1,.53,1.63l-.57,1.74a1.47,1.47,0,0,1-1.39,1H59.77a1.47,1.47,0,0,0-.85.28l-2.77,2a1.45,1.45,0,0,0-.53.73l-3,9.25a1.45,1.45,0,0,1-1.38,1H49.39A1.45,1.45,0,0,1,48,82.1Z"/></g></g></svg>